<svg id="svg" version="1.1" width="512" height="364" fill="#ffff" xmlns="http://www.w3.org/2000/svg"><path d="M189.834 91.163 C 184.795 96.600,182.021 101.306,175.252 115.905 C 170.670 125.787,169.803 128.608,169.382 135.000 C 168.918 142.037,168.982 142.346,170.408 140.000 C 171.245 138.625,171.945 135.558,171.965 133.185 C 172.004 128.427,175.707 118.701,177.142 119.588 C 177.641 119.896,177.967 119.778,177.866 119.324 C 177.131 116.025,185.021 101.240,191.892 93.041 C 195.391 88.864,196.382 89.381,201.156 97.867 C 205.120 104.911,212.829 116.850,215.126 119.500 C 216.079 120.600,218.651 125.009,220.841 129.298 C 223.030 133.588,225.102 136.644,225.444 136.090 C 226.301 134.705,220.092 122.644,214.291 114.425 C 211.656 110.691,206.769 103.106,203.431 97.568 C 200.064 91.982,196.582 87.351,195.608 87.163 C 194.544 86.958,192.273 88.531,189.834 91.163 M189.500 126.579 C 179.551 130.777,179.000 130.974,179.000 130.329 C 179.000 129.988,177.850 130.949,176.445 132.465 C 175.039 133.982,174.069 135.402,174.289 135.622 C 174.905 136.238,181.944 133.562,188.774 130.114 C 197.392 125.764,205.574 125.710,212.275 129.959 C 216.297 132.510,217.529 134.167,221.199 141.959 C 223.540 146.932,225.775 151.000,226.165 151.000 C 227.600 151.000,219.214 132.832,216.444 129.942 C 213.245 126.603,205.787 123.987,199.568 124.024 C 197.331 124.037,192.800 125.187,189.500 126.579 M192.500 136.149 C 187.550 138.978,179.675 143.373,175.000 145.916 C 170.325 148.458,164.287 152.065,161.583 153.932 C 149.819 162.052,129.651 167.769,117.500 166.428 C 102.021 164.721,92.447 159.050,85.809 147.657 C 79.612 137.023,79.340 136.773,75.922 138.540 C 74.362 139.347,71.511 142.070,69.586 144.591 C 66.808 148.230,66.205 149.777,66.668 152.088 C 67.060 154.050,66.846 155.000,66.012 155.000 C 65.200 155.000,64.927 156.050,65.220 158.044 C 65.465 159.718,65.292 161.320,64.833 161.603 C 64.375 161.886,64.000 163.448,64.000 165.073 C 64.000 166.698,63.605 168.809,63.123 169.764 C 61.450 173.074,60.000 178.657,60.000 181.786 C 60.000 183.810,58.983 186.101,57.147 188.215 C 55.577 190.022,53.798 192.444,53.193 193.597 C 51.266 197.271,44.820 224.198,43.880 232.500 C 43.382 236.900,42.467 243.875,41.847 248.000 C 41.227 252.125,40.598 259.325,40.449 264.000 C 40.299 268.675,39.462 274.469,38.589 276.876 C 37.587 279.634,37.000 284.517,37.000 290.087 C 37.000 297.833,37.264 299.168,39.145 300.920 C 43.667 305.134,61.735 306.920,100.307 306.966 C 115.601 306.985,131.126 307.434,134.807 307.965 C 138.488 308.495,147.575 309.414,155.000 310.005 C 174.515 311.560,179.018 312.162,178.417 313.135 C 177.712 314.275,169.776 314.137,163.500 312.876 C 160.750 312.324,152.200 311.483,144.500 311.008 C 136.800 310.532,127.233 309.820,123.240 309.426 C 117.009 308.810,115.698 308.963,113.990 310.509 C 111.478 312.782,111.438 316.438,113.899 318.899 C 116.114 321.114,121.960 321.610,156.706 322.530 C 180.069 323.148,183.000 322.747,183.000 318.935 C 183.000 316.962,182.970 316.961,180.250 318.851 C 177.960 320.442,176.580 320.638,172.000 320.022 L 166.500 319.282 171.436 319.141 C 175.003 319.039,177.017 318.393,178.702 316.810 L 181.033 314.620 196.266 317.328 C 213.707 320.428,215.850 320.555,216.624 318.537 C 217.202 317.032,214.433 307.385,212.845 305.371 C 212.356 304.749,210.508 303.952,208.738 303.598 C 206.969 303.244,197.417 300.089,187.511 296.586 C 155.332 285.210,132.114 279.856,77.473 271.216 C 74.708 270.779,69.308 270.439,65.473 270.461 C 59.807 270.493,57.754 270.969,54.518 273.000 C 52.327 274.375,48.580 276.257,46.190 277.183 L 41.845 278.865 43.292 276.683 C 44.088 275.482,45.810 274.275,47.119 274.000 L 49.500 273.500 46.721 270.593 C 45.193 268.994,44.218 268.404,44.555 269.282 C 44.892 270.160,44.693 271.693,44.114 272.689 C 43.172 274.308,43.057 274.235,43.022 272.000 C 43.000 270.625,42.730 267.025,42.422 264.000 L 41.861 258.500 43.799 262.500 C 44.864 264.700,46.840 267.515,48.188 268.755 C 50.267 270.667,51.341 270.915,55.230 270.382 L 59.820 269.753 56.200 262.824 C 53.542 257.734,51.708 255.481,49.291 254.334 C 45.871 252.711,45.000 250.598,47.375 249.686 C 50.341 248.548,60.000 262.134,60.000 267.445 C 60.000 269.197,62.549 269.406,68.118 268.111 C 70.499 267.558,72.722 267.681,74.618 268.472 C 78.014 269.888,86.072 271.300,84.244 270.159 C 83.359 269.606,83.182 267.952,83.646 264.570 C 84.277 259.959,84.357 259.861,85.617 262.133 C 86.338 263.435,86.945 265.201,86.965 266.059 C 87.031 268.975,89.491 270.976,93.500 271.376 C 95.700 271.595,99.300 272.119,101.500 272.541 L 105.500 273.307 102.059 270.404 C 100.166 268.807,97.916 267.497,97.059 267.494 C 93.252 267.480,83.000 257.980,83.000 254.467 C 83.000 252.489,83.506 252.000,85.551 252.000 C 87.557 252.000,88.433 252.801,89.651 255.750 C 91.842 261.057,93.871 263.000,97.221 263.000 C 101.201 263.000,103.696 264.511,105.510 268.020 C 107.410 271.693,110.874 274.033,115.194 274.561 C 122.422 275.445,150.609 282.087,164.500 286.180 C 168.350 287.315,173.810 288.192,176.634 288.129 C 180.079 288.052,182.175 288.506,183.006 289.507 C 184.421 291.213,182.962 291.562,181.313 289.913 C 180.638 289.238,180.000 289.190,179.632 289.787 C 179.305 290.315,182.517 291.908,186.769 293.326 C 191.021 294.744,197.398 297.051,200.940 298.452 C 209.133 301.694,214.547 301.702,232.803 298.500 C 260.103 293.711,272.540 295.026,301.000 305.708 C 321.889 313.548,331.003 316.000,339.260 316.000 L 346.296 316.000 342.934 318.265 C 341.085 319.511,336.855 324.043,333.535 328.337 C 330.214 332.630,326.597 336.656,325.498 337.284 C 318.235 341.435,113.602 336.900,93.500 332.143 C 91.359 331.636,89.917 330.298,88.462 327.466 C 85.574 321.846,81.431 320.134,67.861 318.951 C 56.806 317.987,41.796 315.770,37.250 314.430 C 35.138 313.807,35.000 314.060,35.000 318.555 C 35.000 321.634,35.599 324.005,36.679 325.198 C 37.602 326.218,42.777 328.426,48.179 330.104 C 53.581 331.782,58.000 333.353,58.000 333.595 C 58.000 333.837,53.163 333.757,47.250 333.418 C 41.085 333.063,35.434 333.212,34.000 333.766 C 25.704 336.972,87.071 341.135,185.000 344.009 C 272.154 346.566,293.899 346.996,340.000 347.076 C 394.454 347.169,437.693 345.863,460.000 343.451 C 475.828 341.740,477.236 341.484,475.000 340.722 C 472.152 339.751,448.475 336.887,440.000 336.487 L 431.500 336.087 438.500 337.013 C 442.350 337.522,447.869 338.211,450.764 338.543 C 461.135 339.734,454.658 340.788,433.260 341.393 C 421.292 341.732,404.975 342.202,397.000 342.437 C 389.025 342.673,383.400 342.635,384.500 342.353 C 385.600 342.072,393.899 340.269,402.942 338.348 C 446.366 329.121,472.481 318.755,476.068 309.320 C 478.629 302.585,475.935 282.158,471.646 275.782 C 470.432 273.977,468.850 270.475,468.133 268.000 C 466.383 261.968,464.598 259.367,461.711 258.642 C 460.389 258.310,456.815 256.539,453.770 254.705 C 445.538 249.748,430.544 247.030,400.416 245.032 C 389.308 244.296,384.342 243.463,376.916 241.089 C 371.737 239.434,364.652 237.419,361.172 236.611 C 357.561 235.772,352.776 233.716,350.026 231.821 C 345.429 228.652,345.187 228.251,344.757 223.078 C 344.282 217.350,342.458 215.011,335.613 211.351 L 332.727 209.807 334.863 212.808 C 338.493 217.906,337.077 224.783,331.148 230.849 C 327.752 234.323,325.876 234.761,324.013 232.516 C 323.058 231.365,323.033 229.622,323.903 224.766 C 324.896 219.222,324.833 218.385,323.351 217.500 C 322.429 216.950,320.849 215.713,319.838 214.750 C 318.068 213.064,318.000 213.158,318.000 217.300 C 318.000 219.665,317.460 222.140,316.800 222.800 C 315.867 223.733,315.867 224.000,316.800 224.000 C 318.758 224.000,318.166 226.841,315.962 228.020 C 314.841 228.620,313.041 228.830,311.961 228.488 C 309.743 227.784,307.658 224.496,308.288 222.695 C 308.920 220.887,306.030 211.754,304.153 209.628 C 303.244 208.598,300.135 206.416,297.245 204.780 C 294.356 203.143,291.111 200.685,290.036 199.318 L 288.080 196.832 287.390 199.583 C 287.010 201.096,287.257 205.139,287.938 208.567 C 288.923 213.522,288.924 215.282,287.939 217.150 C 286.001 220.827,284.903 221.027,280.556 218.493 C 278.325 217.193,273.854 214.817,270.620 213.214 L 264.739 210.299 270.370 204.758 C 275.138 200.065,276.000 198.666,276.000 195.623 C 276.000 192.560,275.446 191.677,272.250 189.648 C 270.188 188.339,268.050 187.439,267.500 187.649 C 266.950 187.859,265.454 189.564,264.175 191.437 C 261.951 194.695,261.923 194.953,263.535 197.414 C 265.314 200.128,265.040 203.197,262.739 206.343 C 261.448 208.108,261.156 208.058,255.945 205.194 C 243.443 198.323,242.016 197.471,242.008 196.876 C 241.994 195.804,247.338 190.884,250.978 188.617 C 253.401 187.107,254.994 185.001,256.229 181.676 L 258.001 176.901 251.367 180.612 C 245.832 183.707,243.717 184.337,238.616 184.411 L 232.500 184.500 232.187 181.250 C 231.853 177.785,230.606 176.978,229.607 179.582 C 228.606 182.190,228.919 185.832,230.213 186.632 C 232.476 188.030,239.919 188.729,240.392 187.587 C 240.640 186.989,240.878 187.651,240.921 189.059 C 240.964 190.466,240.388 192.454,239.640 193.477 C 238.320 195.283,238.198 195.279,235.390 193.326 C 233.801 192.221,230.925 190.503,229.000 189.509 C 227.075 188.516,223.737 186.785,221.583 185.664 L 217.666 183.626 222.430 179.313 C 226.898 175.268,227.555 175.000,233.020 175.000 C 237.829 175.000,239.384 174.548,241.922 172.412 C 244.546 170.204,245.623 169.915,249.249 170.442 L 253.500 171.059 250.455 169.664 C 248.588 168.809,245.704 165.650,243.000 161.500 C 238.228 154.175,236.471 154.210,240.029 161.559 C 241.239 164.059,241.956 166.377,241.623 166.710 C 241.290 167.043,241.519 167.920,242.131 168.658 C 243.044 169.758,242.005 170.008,236.372 170.044 C 232.593 170.068,227.813 170.690,225.750 171.426 C 222.444 172.606,220.512 172.038,222.871 170.580 C 225.127 169.185,224.858 163.675,222.138 155.580 C 219.910 148.949,218.321 146.139,214.546 142.151 C 209.177 136.481,205.533 135.154,201.323 137.337 C 198.131 138.992,190.938 145.699,191.189 146.786 C 191.279 147.179,188.799 150.078,185.677 153.229 C 180.066 158.891,178.586 162.000,181.500 162.000 C 182.325 162.000,183.009 162.338,183.020 162.750 C 183.030 163.162,185.274 165.863,188.005 168.750 C 193.560 174.622,197.000 175.482,201.139 172.033 C 202.438 170.952,203.113 170.052,202.639 170.033 C 202.166 170.015,202.841 169.115,204.139 168.033 C 205.438 166.952,206.167 166.052,205.759 166.033 C 204.730 165.987,211.092 160.000,212.170 160.000 C 212.650 160.000,213.555 158.875,214.182 157.500 C 215.455 154.705,217.486 154.219,218.362 156.500 C 218.678 157.325,218.515 158.000,218.000 158.000 C 217.485 158.000,217.309 158.642,217.610 159.427 C 217.950 160.311,215.657 163.218,211.570 167.084 C 204.636 173.642,203.472 176.166,209.502 171.566 C 211.459 170.074,213.479 168.999,213.991 169.177 C 214.504 169.354,212.353 171.300,209.212 173.500 L 203.500 177.500 187.000 177.300 C 175.420 177.160,171.221 177.393,172.919 178.081 C 174.250 178.620,181.738 179.160,189.561 179.280 C 197.383 179.401,203.619 179.775,203.418 180.111 C 202.117 182.292,177.888 181.509,168.000 178.967 L 164.500 178.067 166.900 179.901 C 169.790 182.109,190.428 184.572,197.775 183.585 C 201.803 183.044,202.205 183.135,200.500 184.199 C 197.202 186.257,171.237 185.163,166.629 182.772 C 165.341 182.103,164.963 182.131,165.415 182.863 C 166.413 184.478,172.873 185.988,178.809 185.994 C 181.729 185.997,183.894 186.363,183.620 186.807 C 183.345 187.250,186.462 187.484,190.546 187.325 C 198.854 187.003,198.323 186.489,199.356 195.848 C 199.971 201.417,202.742 204.349,210.079 207.194 C 213.254 208.425,215.633 209.785,215.366 210.216 C 215.100 210.647,215.696 211.003,216.691 211.006 C 217.686 211.010,219.625 211.611,221.000 212.342 C 257.271 231.632,266.046 235.774,272.493 236.648 C 275.866 237.105,277.752 236.526,284.404 232.995 C 291.745 229.098,292.381 228.929,293.325 230.616 C 296.906 237.016,302.765 238.728,308.096 234.932 L 311.000 232.864 311.000 235.932 C 311.000 239.455,314.025 243.000,317.032 243.000 C 319.822 243.000,326.000 240.324,326.000 239.116 C 326.000 238.573,327.564 237.564,329.475 236.873 C 331.386 236.182,332.735 235.402,332.473 235.139 C 332.210 234.877,332.640 233.950,333.429 233.079 C 334.217 232.208,335.472 230.318,336.219 228.879 L 337.576 226.263 338.695 228.633 C 339.466 230.268,339.479 230.796,338.736 230.337 C 338.143 229.970,338.523 230.827,339.579 232.240 C 340.636 233.653,342.259 235.287,343.186 235.873 C 344.754 236.863,344.764 236.679,343.325 233.235 C 342.474 231.199,340.928 228.453,339.889 227.132 C 338.850 225.811,338.000 223.870,338.000 222.818 C 338.000 220.968,338.077 220.964,340.387 222.703 C 341.700 223.691,343.313 225.987,343.972 227.805 C 345.253 231.341,352.103 237.000,355.102 237.000 C 356.092 237.000,362.437 238.755,369.202 240.899 C 383.086 245.301,390.069 246.486,411.500 248.074 C 432.471 249.628,442.470 251.880,454.211 257.692 C 459.973 260.545,463.932 263.110,463.946 264.000 C 463.966 265.256,463.825 265.273,463.084 264.102 C 462.392 263.009,460.710 262.856,455.393 263.401 C 448.324 264.125,446.000 265.198,446.000 267.737 C 446.000 269.015,446.366 268.990,448.545 267.563 C 451.995 265.302,460.464 264.324,461.538 266.062 C 462.619 267.810,462.101 277.918,460.800 280.470 C 459.527 282.968,455.954 285.948,454.194 285.978 C 453.476 285.990,454.054 284.987,455.479 283.750 C 458.561 281.073,461.095 273.447,459.936 270.338 C 458.556 266.636,451.000 266.006,451.000 269.592 C 451.000 270.394,449.800 271.506,448.333 272.064 C 445.479 273.149,444.046 272.089,444.015 268.872 C 443.993 266.451,441.615 264.921,438.270 265.176 L 435.305 265.402 437.145 271.451 C 439.545 279.342,439.588 285.614,437.250 286.869 C 435.665 287.720,435.529 287.276,435.805 282.154 C 435.973 279.044,435.455 273.800,434.653 270.500 C 433.260 264.766,433.164 264.640,432.491 267.659 C 431.908 270.274,431.186 270.930,428.298 271.472 C 426.379 271.832,423.517 273.448,421.938 275.063 C 420.359 276.678,418.404 278.000,417.593 278.000 C 416.782 278.000,415.840 278.450,415.500 279.000 C 415.160 279.550,414.389 280.000,413.786 280.000 C 413.183 280.000,413.435 279.177,414.345 278.171 C 415.255 277.165,416.000 275.506,416.000 274.484 C 416.000 272.908,415.535 273.071,412.933 275.563 C 410.216 278.164,409.273 278.464,404.683 278.184 C 401.548 277.993,398.031 278.487,395.782 279.434 C 393.737 280.295,390.062 281.000,387.614 281.000 C 378.991 281.000,379.204 282.420,388.000 283.574 C 392.675 284.187,400.458 285.540,405.296 286.579 C 413.014 288.238,414.205 288.288,415.015 286.985 C 415.773 285.765,414.957 285.372,410.451 284.784 C 407.433 284.390,403.060 283.495,400.732 282.796 L 396.500 281.525 401.396 281.202 C 404.089 281.024,407.494 281.376,408.962 281.984 C 410.763 282.730,412.465 282.774,414.189 282.118 C 417.465 280.873,419.000 282.315,419.000 286.641 C 419.000 288.424,419.450 290.160,420.000 290.500 C 421.450 291.396,421.262 282.662,419.800 281.200 C 418.981 280.381,418.951 280.000,419.705 280.000 C 420.551 280.000,426.435 284.374,429.847 287.539 C 430.038 287.716,428.328 288.812,426.048 289.975 C 422.252 291.912,421.295 291.999,414.701 291.001 C 410.741 290.402,404.094 289.459,399.930 288.906 C 395.767 288.352,389.033 286.845,384.967 285.555 C 379.660 283.873,376.910 283.464,375.222 284.106 C 373.928 284.598,371.899 285.000,370.712 285.000 C 368.566 285.000,368.565 284.993,370.578 283.583 C 372.621 282.152,384.131 278.713,391.500 277.333 L 395.500 276.584 392.218 276.226 C 390.412 276.029,386.801 276.494,384.192 277.259 C 379.436 278.653,376.545 278.545,377.495 277.008 C 378.739 274.995,373.140 277.631,369.747 280.655 C 367.683 282.495,365.658 284.031,365.247 284.068 C 364.836 284.106,361.400 284.352,357.611 284.614 C 346.383 285.394,343.095 288.301,341.391 298.957 C 340.666 303.493,336.965 309.641,335.188 309.262 C 334.574 309.131,334.322 309.675,334.627 310.470 C 334.994 311.426,334.314 312.134,332.625 312.558 C 330.022 313.211,325.227 311.742,295.375 301.140 C 270.890 292.445,258.600 291.266,235.342 295.377 C 228.106 296.656,218.837 297.792,214.745 297.900 C 207.599 298.089,207.142 297.960,203.169 294.641 C 199.589 291.650,198.510 291.256,195.135 291.709 C 192.991 291.996,190.396 291.743,189.368 291.146 C 187.815 290.244,188.258 290.044,192.000 289.960 C 194.475 289.905,197.400 289.508,198.500 289.078 C 200.440 288.319,200.433 288.275,198.266 287.586 C 197.038 287.195,193.909 286.677,191.314 286.433 C 188.549 286.174,185.125 284.981,183.047 283.551 C 177.512 279.745,174.124 278.761,170.683 279.961 C 167.016 281.239,165.000 281.288,165.000 280.098 C 165.000 279.602,167.679 278.885,170.954 278.505 C 177.694 277.723,182.764 278.976,185.618 282.130 C 186.641 283.261,188.383 284.626,189.489 285.164 C 190.595 285.702,189.813 284.580,187.750 282.670 C 185.688 280.759,184.000 278.750,184.000 278.205 C 184.000 276.500,181.146 276.000,171.418 276.000 C 162.617 276.000,162.000 275.867,162.000 273.968 C 162.000 272.779,162.933 271.583,164.250 271.086 C 166.068 270.400,165.347 270.092,160.500 269.483 C 157.200 269.069,153.612 268.116,152.527 267.365 C 151.443 266.614,149.332 266.000,147.837 266.000 C 144.367 266.000,143.355 264.416,145.940 263.032 C 148.199 261.823,153.878 261.994,154.683 263.295 C 155.616 264.806,172.268 272.111,173.606 271.598 C 175.163 271.000,183.529 275.281,187.000 278.451 C 188.375 279.707,191.750 282.018,194.500 283.585 C 197.250 285.153,200.779 287.575,202.342 288.968 C 203.905 290.361,206.434 292.625,207.962 294.000 C 209.490 295.375,211.487 296.565,212.400 296.644 C 213.910 296.775,213.896 296.502,212.246 293.644 C 211.248 291.915,209.097 289.813,207.466 288.973 C 205.835 288.133,203.150 286.162,201.500 284.592 C 199.850 283.022,197.369 281.234,195.986 280.619 C 190.005 277.957,170.484 265.000,172.455 265.000 C 172.789 265.000,175.643 265.869,178.795 266.931 C 185.831 269.301,195.937 270.297,197.742 268.799 C 198.460 268.203,199.362 268.029,199.745 268.412 C 200.128 268.795,199.780 269.527,198.971 270.039 C 197.954 270.682,199.120 270.974,202.750 270.985 C 205.637 270.993,208.000 270.602,208.000 270.116 C 208.000 269.630,209.463 269.376,211.250 269.552 C 213.037 269.728,215.400 269.946,216.500 270.036 C 218.192 270.174,218.114 270.321,216.000 270.987 C 214.473 271.468,218.171 271.784,225.500 271.799 C 232.100 271.812,240.875 272.241,245.000 272.751 C 252.416 273.669,252.463 273.694,249.250 274.938 C 245.600 276.351,244.647 278.623,248.250 277.323 C 250.605 276.473,254.314 276.526,264.787 277.561 C 269.672 278.043,271.623 277.822,273.537 276.568 C 275.768 275.106,277.005 275.662,275.304 277.362 C 274.922 277.745,274.515 278.697,274.400 279.477 C 274.099 281.533,277.362 279.349,278.567 276.688 C 279.080 275.556,280.071 274.447,280.769 274.225 C 281.524 273.984,281.134 275.377,279.806 277.660 C 277.752 281.193,277.730 281.383,279.537 280.030 C 280.616 279.222,282.305 277.759,283.289 276.780 C 285.471 274.609,287.146 274.457,286.362 276.500 C 286.045 277.325,285.309 278.000,284.726 278.000 C 284.144 278.000,283.925 278.258,284.240 278.574 C 284.556 278.889,286.247 278.407,287.997 277.501 C 289.748 276.596,291.804 276.094,292.566 276.387 C 293.328 276.679,295.578 276.239,297.566 275.408 C 299.555 274.577,300.909 274.338,300.576 274.877 C 300.243 275.416,300.765 276.052,301.735 276.291 C 302.706 276.529,302.488 276.624,301.250 276.501 C 300.012 276.378,299.000 276.632,299.000 277.065 C 299.000 277.499,298.212 278.060,297.250 278.312 C 296.288 278.565,298.346 278.683,301.824 278.575 C 305.302 278.468,308.452 277.957,308.824 277.440 C 309.196 276.923,309.950 276.421,310.500 276.324 C 311.050 276.227,312.400 275.818,313.500 275.414 C 315.282 274.760,315.235 274.970,313.076 277.340 C 311.742 278.803,311.125 280.000,311.703 280.000 C 312.282 280.000,313.319 279.321,314.008 278.491 C 314.696 277.661,317.001 276.003,319.130 274.807 C 323.325 272.449,324.394 270.526,320.750 271.894 C 316.633 273.438,302.803 274.300,302.036 273.059 C 301.557 272.283,300.556 272.218,298.880 272.855 C 296.077 273.921,283.030 273.754,281.209 272.629 C 280.544 272.218,280.000 272.258,280.000 272.717 C 280.000 273.177,278.313 273.440,276.250 273.302 C 264.784 272.536,259.181 272.496,260.271 273.189 C 261.189 273.772,261.199 273.973,260.309 273.985 C 259.654 273.993,258.880 273.616,258.590 273.146 C 258.300 272.676,255.461 271.996,252.281 271.635 C 249.101 271.275,243.125 270.529,239.000 269.978 C 225.771 268.213,213.804 266.930,201.500 265.959 C 174.880 263.858,161.000 261.626,161.000 259.446 C 161.000 259.180,162.012 259.202,163.250 259.496 C 166.229 260.203,190.588 262.853,204.906 264.028 C 211.179 264.543,217.029 265.179,217.906 265.440 C 218.783 265.702,224.450 266.401,230.500 266.992 C 236.550 267.584,244.425 268.489,248.000 269.003 C 256.674 270.250,281.899 271.094,280.000 270.073 C 279.175 269.630,273.133 268.976,266.574 268.619 C 253.505 267.909,241.129 266.645,225.000 264.374 C 212.107 262.559,194.994 260.518,176.500 258.591 C 161.839 257.063,155.761 255.194,150.184 250.501 C 148.586 249.156,146.000 247.570,144.437 246.976 C 141.732 245.947,141.674 245.983,143.238 247.710 C 144.141 248.708,144.855 250.869,144.824 252.512 C 144.753 256.336,145.246 258.313,146.500 259.235 C 147.050 259.639,146.600 259.969,145.500 259.969 C 143.274 259.969,142.114 259.286,140.215 256.856 C 139.150 255.492,139.218 254.925,140.614 253.529 C 142.180 251.963,142.183 251.607,140.657 248.406 C 139.669 246.336,137.122 243.812,134.258 242.066 C 131.641 240.471,128.063 238.266,126.306 237.166 C 124.440 235.998,122.967 235.598,122.765 236.204 C 122.556 236.831,120.578 236.402,117.765 235.121 C 115.204 233.954,112.570 233.000,111.910 233.000 C 109.049 233.000,101.953 227.341,100.612 223.989 C 99.552 221.339,98.261 220.147,95.353 219.134 C 89.569 217.119,84.455 213.301,82.725 209.707 C 79.274 202.537,75.080 192.320,74.430 189.500 L 73.739 186.500 76.660 189.696 C 83.527 197.208,95.244 199.018,105.500 194.151 C 120.955 186.818,161.549 162.156,163.583 158.866 C 164.651 157.137,163.377 157.846,148.422 167.307 C 127.693 180.419,107.074 192.148,102.091 193.661 C 95.008 195.812,89.872 195.352,83.492 191.996 C 77.752 188.976,75.819 187.092,70.754 179.575 C 68.493 176.220,68.018 174.440,68.062 169.500 C 68.091 166.200,68.488 161.700,68.943 159.500 C 69.637 156.142,69.788 156.911,69.885 164.282 C 70.028 175.184,71.288 178.271,78.106 184.423 C 85.191 190.814,88.902 192.303,96.541 191.816 C 102.129 191.461,104.150 190.576,120.077 181.515 C 129.660 176.063,140.425 169.757,144.000 167.501 C 154.378 160.951,164.056 155.916,165.067 156.541 C 165.580 156.858,166.000 156.630,166.000 156.034 C 166.000 155.438,167.152 154.512,168.560 153.977 C 169.968 153.442,170.863 152.587,170.548 152.078 C 170.233 151.568,173.244 149.561,177.238 147.617 C 181.232 145.673,188.100 141.714,192.500 138.819 C 201.914 132.625,206.334 131.959,211.866 135.902 C 214.932 138.088,215.135 138.121,214.150 136.281 C 212.881 133.909,207.202 130.999,203.849 131.002 C 202.557 131.004,197.450 133.320,192.500 136.149 M86.000 136.393 C 86.000 137.384,95.364 150.542,98.413 153.835 C 100.111 155.670,102.850 157.872,104.500 158.729 C 106.996 160.025,106.623 159.381,102.281 154.894 C 99.411 151.927,95.050 146.730,92.589 143.344 C 88.500 137.720,86.000 135.082,86.000 136.393 M211.179 142.750 C 215.272 147.032,217.031 150.070,216.929 152.684 C 216.889 153.729,216.087 152.801,215.043 150.500 C 213.015 146.032,207.554 140.443,204.500 139.711 C 202.882 139.323,202.986 139.210,205.047 139.116 C 206.779 139.037,208.741 140.199,211.179 142.750 M229.000 142.559 C 229.000 143.966,229.422 144.857,229.939 144.538 C 230.455 144.219,231.341 144.755,231.908 145.729 C 233.528 148.511,233.172 146.233,231.474 142.950 C 229.602 139.329,229.000 139.234,229.000 142.559 M208.896 146.535 C 213.358 151.616,212.730 155.537,206.980 158.510 C 205.352 159.352,203.114 161.817,202.007 163.987 C 198.941 169.995,196.823 170.662,192.594 166.949 C 190.670 165.259,188.812 162.983,188.465 161.889 C 187.649 159.319,190.187 155.472,194.000 153.500 C 195.639 152.652,197.873 150.210,198.963 148.072 C 202.087 141.949,204.537 141.570,208.896 146.535 M77.142 147.000 C 77.679 147.000,77.797 146.480,77.405 145.845 C 76.962 145.130,77.130 144.962,77.845 145.405 C 78.480 145.797,79.000 147.291,79.000 148.726 C 79.000 150.160,79.273 151.060,79.606 150.727 C 80.376 149.957,83.480 152.943,84.309 155.250 C 84.654 156.213,84.501 157.000,83.969 157.000 C 83.436 157.000,83.000 156.148,83.000 155.107 C 83.000 154.066,82.325 152.955,81.500 152.638 C 80.370 152.205,80.000 152.810,80.000 155.090 C 80.000 156.831,80.420 157.858,80.989 157.507 C 81.532 157.171,81.736 157.525,81.440 158.295 C 81.054 159.302,81.793 159.718,84.089 159.783 C 88.248 159.902,89.500 161.198,88.057 163.893 C 87.437 165.052,86.511 166.000,86.000 166.000 C 85.489 166.000,84.560 166.954,83.935 168.121 C 83.263 169.378,83.215 169.985,83.820 169.611 C 84.380 169.265,85.630 169.773,86.598 170.741 C 87.566 171.708,88.603 172.354,88.904 172.175 C 89.204 171.996,89.624 172.371,89.836 173.008 C 90.070 173.709,88.926 173.496,86.940 172.469 C 83.939 170.917,83.429 170.906,81.005 172.338 L 78.354 173.904 77.209 169.202 C 76.032 164.363,74.608 143.513,75.608 145.750 C 75.915 146.438,76.606 147.000,77.142 147.000 M76.666 153.250 C 76.871 156.137,77.570 161.650,78.220 165.500 C 79.317 171.999,79.450 172.250,80.069 169.000 C 80.589 166.273,80.769 166.052,80.884 168.000 C 80.997 169.930,81.240 170.169,81.949 169.048 C 82.455 168.249,82.658 167.256,82.402 166.842 C 82.146 166.427,83.159 165.287,84.653 164.308 L 87.370 162.528 83.435 161.430 C 80.115 160.503,79.459 159.876,79.236 157.416 C 78.347 147.600,75.995 143.787,76.666 153.250 M202.688 149.646 C 201.147 151.186,202.040 154.000,204.070 154.000 C 205.625 154.000,206.060 153.461,205.820 151.828 C 205.488 149.573,203.880 148.453,202.688 149.646 M233.232 152.000 C 233.232 153.925,233.438 154.713,233.689 153.750 C 233.941 152.787,233.941 151.213,233.689 150.250 C 233.438 149.287,233.232 150.075,233.232 152.000 M221.985 162.282 C 222.011 166.983,219.616 171.159,211.666 180.277 C 202.964 190.258,201.989 192.596,204.647 197.106 C 206.183 199.714,211.770 202.921,237.344 215.876 C 266.623 230.707,268.483 231.500,273.996 231.500 C 279.006 231.500,280.400 231.050,284.152 228.224 C 293.779 220.971,302.360 215.000,303.157 215.000 C 305.468 215.000,303.265 217.470,296.066 222.950 C 277.324 237.217,274.603 237.484,254.000 227.084 C 247.675 223.891,234.039 217.015,223.698 211.802 C 213.357 206.590,204.210 201.639,203.372 200.800 C 201.630 199.058,200.471 192.241,201.334 188.810 C 201.654 187.540,205.146 182.900,209.095 178.500 C 216.712 170.014,219.932 164.399,219.993 159.500 C 220.022 157.191,220.254 156.846,221.000 158.000 C 221.533 158.825,221.976 160.752,221.985 162.282 M193.441 159.096 C 192.468 160.671,195.545 163.389,197.466 162.652 C 198.754 162.157,198.865 161.616,198.008 160.015 C 196.834 157.821,194.517 157.355,193.441 159.096 M90.000 168.046 C 91.095 168.787,90.691 168.880,88.500 168.390 C 84.823 167.567,84.025 166.995,86.583 167.015 C 87.638 167.024,89.175 167.487,90.000 168.046 M172.875 169.179 C 171.890 169.861,172.114 169.959,173.666 169.525 C 174.857 169.191,176.121 169.387,176.475 169.959 C 177.366 171.401,179.000 171.265,178.999 169.750 C 178.998 168.241,174.796 167.849,172.875 169.179 M159.000 169.577 C 159.000 170.252,164.195 172.139,164.690 171.644 C 164.917 171.417,163.729 170.753,162.051 170.168 C 160.373 169.583,159.000 169.317,159.000 169.577 M76.830 173.325 C 76.224 176.526,78.072 178.596,81.753 178.840 C 86.012 179.122,89.010 181.258,86.941 182.536 C 86.144 183.029,85.943 182.901,86.386 182.184 C 87.195 180.875,82.778 179.487,80.539 180.347 C 78.628 181.080,75.000 176.469,75.000 173.306 C 75.000 171.903,75.432 171.149,76.027 171.516 C 76.591 171.865,76.953 172.679,76.830 173.325 M156.000 172.552 C 161.607 174.318,162.164 174.309,159.000 172.500 C 157.625 171.714,155.375 171.085,154.000 171.102 C 152.226 171.125,152.807 171.546,156.000 172.552 M154.500 175.362 C 159.208 177.545,162.000 178.221,162.000 177.179 C 162.000 176.653,160.393 175.921,158.429 175.553 C 156.465 175.184,154.102 174.678,153.179 174.427 C 152.256 174.176,152.850 174.597,154.500 175.362 M65.108 180.114 C 62.560 182.488,62.237 180.501,64.724 177.752 C 65.813 176.550,66.590 176.271,66.833 176.998 C 67.044 177.631,66.268 179.033,65.108 180.114 M98.555 177.811 C 100.429 178.898,100.420 178.940,98.309 178.970 C 97.104 178.986,95.835 178.543,95.490 177.984 C 95.144 177.425,94.474 177.207,94.000 177.500 C 93.526 177.793,92.880 177.615,92.564 177.104 C 91.804 175.874,96.087 176.379,98.555 177.811 M216.130 181.750 C 213.861 184.363,211.104 187.447,210.002 188.605 C 207.464 191.274,207.434 192.374,209.934 191.035 C 212.684 189.564,216.342 189.749,222.312 191.663 C 227.855 193.441,232.432 196.000,230.068 196.000 C 227.971 196.000,231.506 199.553,235.072 201.030 C 238.437 202.424,238.931 204.000,236.003 204.000 C 234.904 204.000,232.317 202.495,230.253 200.656 C 228.189 198.817,225.600 196.762,224.500 196.089 C 222.730 195.007,222.879 194.930,225.800 195.418 C 227.841 195.760,228.867 195.594,228.491 194.985 C 227.600 193.544,222.456 193.783,218.468 195.449 C 214.593 197.068,213.563 199.679,217.250 198.536 C 222.798 196.816,223.851 196.851,225.819 198.819 C 226.927 199.927,228.032 200.635,228.274 200.393 C 228.517 200.150,229.192 200.526,229.775 201.229 C 230.606 202.230,229.828 202.543,226.167 202.678 C 221.530 202.849,221.514 202.839,223.706 201.050 L 225.913 199.250 223.456 199.250 C 221.903 199.250,220.957 199.848,220.884 200.875 C 220.786 202.241,220.695 202.221,220.311 200.749 C 219.972 199.455,219.223 199.157,217.436 199.605 C 214.434 200.359,212.735 197.287,215.346 195.827 C 216.255 195.317,217.000 194.234,217.000 193.419 C 217.000 191.524,214.350 190.483,212.737 191.744 C 212.057 192.276,210.488 192.959,209.250 193.262 C 205.070 194.285,206.726 190.112,213.159 183.413 C 220.391 175.882,222.016 174.972,216.130 181.750 M267.500 183.000 C 268.600 183.473,270.175 183.884,271.000 183.914 C 272.333 183.963,272.333 183.862,271.000 183.000 C 270.175 182.467,268.600 182.055,267.500 182.086 L 265.500 182.141 267.500 183.000 M170.500 188.038 C 172.435 188.833,182.759 189.373,181.917 188.635 C 181.688 188.435,178.575 188.034,175.000 187.744 C 171.183 187.435,169.326 187.556,170.500 188.038 M70.606 194.687 C 71.332 197.540,73.226 202.602,74.815 205.937 C 76.403 209.272,77.352 212.000,76.925 212.000 C 75.538 212.000,70.185 201.615,69.451 197.500 C 68.418 191.712,67.163 189.724,64.913 190.313 C 63.829 190.596,63.256 190.395,63.593 189.849 C 63.921 189.319,65.335 189.024,66.737 189.193 C 68.892 189.453,69.488 190.299,70.606 194.687 M282.009 189.683 C 282.020 190.735,292.765 197.569,295.875 198.502 C 299.287 199.525,297.945 197.975,291.826 193.824 C 286.311 190.083,281.994 188.262,282.009 189.683 M191.520 195.623 C 189.881 197.389,188.194 198.620,187.770 198.358 C 187.347 198.096,187.000 198.287,187.000 198.783 C 187.000 199.278,185.120 200.247,182.822 200.935 C 180.524 201.624,177.043 203.045,175.087 204.093 C 173.130 205.142,169.985 206.000,168.098 206.000 C 166.211 206.000,164.979 206.312,165.361 206.694 C 166.656 207.990,174.089 206.922,178.014 204.876 C 180.164 203.755,182.727 203.013,183.711 203.226 C 184.920 203.488,183.483 204.649,179.279 206.807 C 174.420 209.301,171.791 210.003,167.279 210.015 C 164.100 210.024,160.825 210.467,160.000 211.000 C 158.930 211.692,160.076 211.978,164.000 212.000 C 168.170 212.023,169.137 212.288,168.000 213.096 C 166.854 213.910,167.177 214.013,169.367 213.533 C 170.943 213.186,173.643 212.643,175.367 212.324 C 177.090 212.005,179.458 210.789,180.629 209.622 C 181.799 208.455,183.937 206.649,185.379 205.610 C 186.820 204.570,188.000 203.108,188.000 202.360 C 188.000 201.612,188.584 201.000,189.297 201.000 C 190.010 201.000,192.292 199.261,194.368 197.135 C 197.584 193.841,197.873 193.207,196.321 192.841 C 195.185 192.573,193.379 193.620,191.520 195.623 M56.988 198.250 C 55.987 201.137,54.036 207.325,52.653 212.000 C 49.513 222.616,49.265 218.556,52.339 206.872 C 54.289 199.464,57.125 193.000,58.427 193.000 C 58.636 193.000,57.989 195.363,56.988 198.250 M251.000 196.021 C 251.000 200.763,256.812 202.418,261.878 199.121 C 264.215 197.600,262.273 195.919,259.591 197.141 C 256.852 198.389,253.000 196.825,253.000 194.465 C 253.000 193.659,252.550 193.000,252.000 193.000 C 251.450 193.000,251.000 194.360,251.000 196.021 M132.750 194.706 C 133.988 194.944,136.012 194.944,137.250 194.706 C 138.488 194.467,137.475 194.272,135.000 194.272 C 132.525 194.272,131.512 194.467,132.750 194.706 M142.250 194.716 C 143.762 194.945,146.238 194.945,147.750 194.716 C 149.262 194.487,148.025 194.300,145.000 194.300 C 141.975 194.300,140.738 194.487,142.250 194.716 M179.762 194.707 C 181.006 194.946,182.806 194.937,183.762 194.687 C 184.718 194.437,183.700 194.241,181.500 194.252 C 179.300 194.263,178.518 194.468,179.762 194.707 M272.805 196.251 C 272.973 197.110,272.566 198.150,271.901 198.561 C 271.108 199.051,270.951 198.888,271.446 198.088 C 271.889 197.371,271.436 196.301,270.350 195.497 C 268.572 194.180,268.577 194.137,270.500 194.408 C 271.600 194.562,272.637 195.392,272.805 196.251 M158.974 198.016 C 158.354 198.400,159.568 198.998,161.673 199.346 C 166.120 200.080,172.541 200.207,171.881 199.547 C 170.967 198.634,160.067 197.341,158.974 198.016 M241.000 200.841 C 243.475 202.289,246.400 204.025,247.500 204.697 C 248.600 205.370,250.186 206.276,251.025 206.710 C 262.557 212.682,281.864 223.470,281.561 223.773 C 281.050 224.283,271.737 220.171,271.035 219.125 C 270.741 218.687,266.450 216.156,261.500 213.501 C 256.550 210.847,250.475 207.563,248.000 206.204 C 245.525 204.845,241.025 202.394,238.000 200.759 C 234.975 199.123,232.275 197.553,232.000 197.268 C 230.790 196.017,236.907 198.446,241.000 200.841 M119.481 199.132 C 118.271 199.634,120.672 199.865,125.651 199.727 C 130.133 199.602,133.581 199.140,133.311 198.701 C 132.697 197.699,122.148 198.028,119.481 199.132 M174.232 200.000 C 173.305 201.484,171.889 202.004,168.742 202.015 C 165.635 202.027,164.901 202.290,166.000 203.000 C 168.399 204.550,171.455 204.157,173.770 202.000 C 174.950 200.900,177.259 200.000,178.899 200.000 C 180.540 200.000,182.160 199.550,182.500 199.000 C 182.871 198.400,181.591 198.000,179.300 198.000 C 176.564 198.000,175.127 198.567,174.232 200.000 M124.762 202.707 C 126.006 202.946,127.806 202.937,128.762 202.687 C 129.718 202.437,128.700 202.241,126.500 202.252 C 124.300 202.263,123.518 202.468,124.762 202.707 M132.577 203.125 C 132.875 203.606,135.191 204.000,137.726 204.000 C 140.260 204.000,142.146 203.835,141.917 203.633 C 140.974 202.803,132.079 202.319,132.577 203.125 M82.675 204.384 C 83.163 205.256,86.435 208.284,89.945 211.113 C 94.568 214.838,98.325 216.872,103.572 218.491 C 107.556 219.720,112.995 221.908,115.658 223.354 L 120.500 225.981 116.500 222.394 L 112.500 218.807 116.500 220.811 C 118.700 221.914,121.625 223.105,123.000 223.460 C 125.438 224.087,125.450 224.064,123.500 222.508 C 122.400 221.631,120.375 220.645,119.000 220.316 C 117.625 219.988,115.213 219.070,113.640 218.277 C 111.794 217.346,111.038 217.253,111.508 218.014 C 111.992 218.797,111.610 219.056,110.368 218.787 C 109.341 218.564,108.624 217.812,108.775 217.116 C 108.926 216.421,108.588 216.136,108.025 216.485 C 107.461 216.833,107.000 216.642,107.000 216.061 C 107.000 215.479,104.920 213.709,102.377 212.126 C 99.390 210.267,98.240 209.056,99.127 208.703 C 100.003 208.355,99.776 208.129,98.500 208.078 C 97.400 208.035,94.250 207.155,91.500 206.123 C 82.577 202.775,81.675 202.597,82.675 204.384 M108.500 205.000 C 107.400 205.473,104.737 205.891,102.583 205.930 C 95.957 206.049,99.465 207.216,106.627 207.276 C 110.613 207.309,115.339 208.081,118.194 209.166 C 120.849 210.175,124.479 210.966,126.261 210.924 C 128.914 210.861,128.352 210.508,123.158 208.976 C 112.100 205.714,112.420 205.667,132.500 207.600 C 142.095 208.523,140.165 207.200,129.358 205.446 C 119.565 203.856,111.560 203.685,108.500 205.000 M151.776 204.733 C 154.128 204.945,157.728 204.942,159.776 204.727 C 161.824 204.512,159.900 204.339,155.500 204.343 C 151.100 204.346,149.424 204.522,151.776 204.733 M309.000 204.367 C 309.000 204.569,310.688 205.846,312.750 207.205 C 316.428 209.628,326.681 211.911,325.532 210.051 C 323.934 207.466,309.000 202.332,309.000 204.367 M275.017 207.679 C 274.990 212.693,278.688 215.208,283.418 213.393 C 286.199 212.326,285.232 210.312,282.156 210.764 C 279.805 211.109,278.940 210.601,277.172 207.841 L 275.034 204.500 275.017 207.679 M249.100 208.982 C 251.520 210.622,254.089 211.972,254.809 211.982 C 255.529 211.992,255.840 212.450,255.500 213.000 C 255.160 213.550,255.489 214.000,256.230 214.000 C 257.568 214.000,266.344 218.386,275.000 223.380 C 277.475 224.808,278.742 225.981,277.815 225.988 C 275.781 226.002,270.744 224.163,270.020 223.140 C 268.982 221.674,253.149 214.530,251.676 214.863 C 251.222 214.966,251.136 214.588,251.485 214.025 C 251.833 213.461,251.471 213.000,250.681 213.000 C 249.891 213.000,248.601 212.032,247.815 210.848 C 246.693 209.158,245.112 208.600,240.443 208.244 C 234.896 207.821,234.633 207.896,236.500 209.364 C 238.833 211.198,237.806 211.501,234.766 209.875 C 232.667 208.752,232.668 208.748,235.082 207.410 C 239.186 205.137,244.265 205.706,249.100 208.982 M146.250 208.735 C 148.863 208.941,153.137 208.941,155.750 208.735 C 158.363 208.529,156.225 208.360,151.000 208.360 C 145.775 208.360,143.637 208.529,146.250 208.735 M105.500 211.436 C 112.390 214.973,125.921 219.936,126.430 219.114 C 126.659 218.742,121.819 216.515,115.674 214.165 C 101.819 208.867,99.043 208.122,105.500 211.436 M119.000 213.128 C 133.821 217.811,138.273 218.975,141.417 218.988 C 146.067 219.007,143.797 217.981,135.851 216.473 C 131.808 215.705,125.350 213.947,121.500 212.565 C 117.650 211.182,113.375 210.068,112.000 210.089 C 110.625 210.109,113.775 211.477,119.000 213.128 M246.000 210.987 C 247.021 211.638,246.224 211.748,243.500 211.330 C 238.557 210.572,237.715 209.995,241.583 210.015 C 243.188 210.024,245.175 210.461,246.000 210.987 M142.500 212.310 C 146.227 214.014,163.100 215.199,165.065 213.894 C 166.143 213.179,165.878 213.002,164.000 213.182 C 161.541 213.418,148.379 212.333,142.500 211.409 L 139.500 210.938 142.500 212.310 M104.611 215.277 C 105.935 216.602,98.546 214.788,97.096 213.433 C 95.934 212.347,96.399 212.329,99.779 213.327 C 102.028 213.991,104.202 214.868,104.611 215.277 M130.569 212.889 C 130.028 213.765,140.027 215.307,140.858 214.476 C 141.670 213.663,140.663 213.303,135.794 212.666 C 133.205 212.327,130.854 212.428,130.569 212.889 M169.646 215.687 C 169.268 216.065,165.705 216.674,161.729 217.041 L 154.500 217.707 160.500 217.924 C 164.868 218.082,165.956 218.374,164.500 219.000 C 163.120 219.593,162.973 219.881,164.027 219.930 C 164.868 219.968,166.584 219.279,167.842 218.398 C 169.100 217.517,170.397 217.064,170.725 217.392 C 171.648 218.315,168.018 221.863,166.158 221.856 C 165.246 221.852,162.810 222.287,160.745 222.821 C 158.550 223.388,156.759 223.419,156.436 222.896 C 156.131 222.403,154.307 222.000,152.382 222.000 C 150.457 222.000,149.134 222.408,149.442 222.906 C 149.750 223.404,150.895 223.579,151.986 223.293 C 153.077 223.008,154.764 223.119,155.735 223.541 C 156.706 223.962,158.400 224.250,159.500 224.179 C 160.718 224.101,160.967 224.284,160.137 224.647 C 158.986 225.149,158.986 225.377,160.137 226.106 C 161.218 226.791,161.229 226.973,160.191 226.985 C 159.458 226.993,159.196 227.508,159.595 228.155 C 160.037 228.869,159.870 229.038,159.156 228.597 C 158.522 228.205,157.003 228.585,155.779 229.442 C 154.556 230.299,152.080 231.000,150.277 231.000 C 148.475 231.000,147.000 231.478,147.000 232.063 C 147.000 232.647,147.787 233.046,148.750 232.948 C 152.524 232.564,152.993 233.007,150.964 235.036 C 149.843 236.157,148.493 236.805,147.964 236.477 C 146.243 235.414,144.788 237.039,146.074 238.589 C 147.011 239.718,146.871 240.001,145.372 240.004 C 143.950 240.007,144.221 240.448,146.500 241.842 C 148.150 242.850,150.138 244.448,150.918 245.393 C 151.698 246.337,153.273 247.559,154.418 248.110 C 156.297 249.013,156.333 248.975,154.793 247.726 C 153.184 246.422,153.184 246.240,154.793 244.551 C 156.143 243.135,156.186 242.862,155.000 243.245 C 152.788 243.960,150.000 242.200,150.000 240.090 C 150.000 238.835,150.980 238.054,153.083 237.633 C 154.796 237.291,157.351 235.599,158.833 233.825 C 160.300 232.070,164.183 228.065,167.461 224.924 C 172.356 220.237,173.208 218.955,172.220 217.765 C 171.559 216.968,171.313 216.020,171.675 215.658 C 172.037 215.296,171.883 215.000,171.333 215.000 C 170.783 215.000,170.024 215.309,169.646 215.687 M90.541 219.338 C 97.335 221.630,97.488 221.757,98.295 225.838 C 98.747 228.127,99.537 230.000,100.049 230.000 C 100.561 230.000,103.973 232.049,107.631 234.553 C 111.289 237.057,114.827 238.897,115.493 238.641 C 117.400 237.909,129.358 241.440,133.369 243.919 C 136.964 246.141,137.554 247.393,136.410 250.374 C 135.946 251.584,135.542 251.654,134.515 250.705 C 133.797 250.042,133.397 249.190,133.627 248.811 C 134.457 247.436,128.593 243.135,124.475 242.098 C 122.156 241.514,119.451 240.726,118.465 240.348 C 117.167 239.850,116.889 240.012,117.458 240.932 C 118.367 242.403,124.715 245.350,127.167 245.439 C 129.101 245.510,130.944 247.000,129.097 247.000 C 128.417 247.000,130.254 249.207,133.180 251.904 C 136.106 254.601,138.227 257.086,137.893 257.427 C 137.559 257.768,135.084 256.455,132.393 254.509 C 122.800 247.574,116.852 243.858,113.202 242.522 C 108.241 240.706,93.200 226.112,95.087 224.946 C 95.832 224.485,96.230 223.917,95.971 223.683 C 94.789 222.615,81.904 219.646,76.500 219.196 C 71.809 218.805,71.045 218.533,73.000 217.948 C 77.718 216.535,83.619 217.003,90.541 219.338 M101.500 219.851 C 105.944 224.314,128.816 233.916,130.090 231.854 C 130.527 231.147,131.537 231.537,132.965 232.965 C 135.684 235.684,136.775 234.944,134.609 231.852 C 133.104 229.704,124.250 225.417,123.293 226.373 C 123.050 226.617,124.459 227.398,126.425 228.109 C 129.615 229.263,131.290 231.000,129.212 231.000 C 128.070 231.000,112.049 224.272,110.667 223.212 C 108.866 221.830,100.368 218.715,101.500 219.851 M148.750 219.706 C 149.988 219.944,152.012 219.944,153.250 219.706 C 154.488 219.467,153.475 219.272,151.000 219.272 C 148.525 219.272,147.512 219.467,148.750 219.706 M72.338 222.174 C 72.877 223.029,73.016 224.515,72.647 225.477 C 71.699 227.948,69.000 225.593,69.000 222.294 C 69.000 219.640,70.701 219.579,72.338 222.174 M134.382 222.090 C 137.067 223.179,139.457 223.876,139.694 223.639 C 140.419 222.914,133.828 219.996,131.596 220.055 C 130.326 220.088,131.424 220.889,134.382 222.090 M81.395 225.330 C 81.018 226.519,80.042 227.980,79.228 228.575 C 78.055 229.433,77.983 230.099,78.883 231.781 C 79.631 233.179,79.801 236.743,79.380 242.219 C 78.995 247.232,79.222 253.388,79.953 257.720 C 80.619 261.672,80.864 265.852,80.497 267.008 L 79.830 269.110 77.800 266.805 C 73.710 262.162,73.085 260.430,72.995 253.491 C 72.772 236.356,74.881 224.361,78.348 223.049 C 81.225 221.961,82.227 222.711,81.395 225.330 M103.179 224.150 C 105.089 227.037,120.000 234.906,120.000 233.027 C 120.000 232.596,118.609 231.666,116.909 230.962 C 115.209 230.258,111.074 227.909,107.721 225.741 C 102.631 222.452,101.881 222.189,103.179 224.150 M142.762 223.707 C 144.006 223.946,145.806 223.937,146.762 223.687 C 147.718 223.437,146.700 223.241,144.500 223.252 C 142.300 223.263,141.518 223.468,142.762 223.707 M92.870 228.988 C 94.578 231.113,96.493 233.988,97.126 235.377 C 97.814 236.888,99.425 238.154,101.137 238.530 C 102.710 238.876,104.561 239.955,105.249 240.928 C 105.937 241.902,108.548 243.601,111.052 244.705 C 113.656 245.854,117.002 248.477,118.870 250.836 C 121.157 253.723,123.359 255.289,126.214 256.058 C 128.456 256.661,131.463 257.926,132.896 258.868 C 134.328 259.810,136.400 261.061,137.500 261.649 C 140.144 263.062,140.036 264.424,137.250 264.820 C 135.412 265.081,135.000 265.772,135.000 268.601 C 135.000 272.452,133.444 273.579,129.498 272.589 C 126.115 271.740,126.315 269.853,129.750 270.212 C 132.016 270.449,132.441 270.148,132.165 268.500 C 131.393 263.887,129.427 261.628,124.833 260.076 C 121.350 258.900,118.603 256.791,114.010 251.767 C 108.986 246.272,106.909 244.754,102.715 243.508 C 99.851 242.657,96.066 240.548,94.163 238.741 L 90.749 235.500 93.219 239.500 C 95.082 242.515,97.011 244.034,101.057 245.669 C 104.755 247.163,107.700 249.340,110.525 252.669 C 115.117 258.079,119.552 265.000,118.426 265.000 C 116.672 265.000,110.655 259.448,106.897 254.361 C 104.656 251.327,102.631 249.035,102.398 249.269 C 102.165 249.502,102.706 251.450,103.600 253.596 L 105.227 257.500 102.975 255.500 C 101.737 254.400,100.133 252.150,99.411 250.500 C 98.689 248.850,95.148 244.355,91.541 240.511 C 87.934 236.668,84.739 232.753,84.440 231.811 C 83.680 229.416,86.678 223.939,88.390 224.596 C 89.146 224.886,91.162 226.863,92.870 228.988 M141.541 227.066 C 141.780 227.453,143.219 227.983,144.738 228.243 C 146.257 228.504,148.400 229.061,149.500 229.482 L 151.500 230.246 149.500 228.760 C 147.441 227.231,140.764 225.809,141.541 227.066 M276.500 228.000 C 276.867 228.594,275.775 228.971,273.809 228.930 C 271.052 228.871,270.834 228.716,272.500 228.000 C 275.213 226.834,275.780 226.834,276.500 228.000 M304.429 228.571 C 306.288 230.431,306.304 230.564,304.965 233.066 C 303.712 235.406,299.744 235.601,297.571 233.429 C 295.712 231.569,295.696 231.436,297.035 228.934 C 298.288 226.594,302.256 226.399,304.429 228.571 M70.070 230.584 C 71.630 232.464,70.659 234.419,66.691 237.381 C 64.165 239.267,63.807 239.286,59.269 237.777 L 54.500 236.191 59.059 236.096 C 61.566 236.043,64.491 235.339,65.559 234.532 C 67.415 233.128,67.377 233.062,64.693 233.032 C 61.242 232.993,52.918 234.963,51.339 236.193 C 49.760 237.422,48.702 235.514,49.525 232.922 C 50.143 230.975,50.250 230.959,51.479 232.640 C 52.705 234.317,52.998 234.267,56.639 231.769 C 61.170 228.660,67.975 228.060,70.070 230.584 M231.250 231.689 C 232.213 231.941,233.787 231.941,234.750 231.689 C 235.713 231.438,234.925 231.232,233.000 231.232 C 231.075 231.232,230.287 231.438,231.250 231.689 M320.139 234.937 C 322.057 236.511,322.294 237.215,321.399 238.687 C 320.794 239.684,319.110 240.642,317.658 240.816 C 314.319 241.215,311.881 237.053,313.975 234.530 C 315.665 232.494,317.293 232.601,320.139 234.937 M133.000 238.414 C 137.675 240.779,141.914 242.479,142.421 242.192 C 142.928 241.905,142.318 241.292,141.066 240.829 C 139.814 240.366,137.375 238.979,135.645 237.747 C 133.915 236.516,132.500 235.650,132.500 235.824 C 132.500 235.998,131.233 235.659,129.685 235.070 C 123.319 232.650,125.042 234.389,133.000 238.414 M213.000 235.000 C 214.375 235.440,216.400 235.801,217.500 235.801 C 219.084 235.801,218.980 235.634,217.000 235.000 C 215.625 234.560,213.600 234.199,212.500 234.199 C 210.916 234.199,211.020 234.366,213.000 235.000 M87.185 243.300 C 87.344 247.519,86.748 248.501,84.543 247.655 C 83.472 247.244,83.000 245.701,83.000 242.613 C 83.000 240.166,82.713 237.339,82.363 236.332 C 81.871 234.917,82.332 235.080,84.386 237.045 C 86.244 238.824,87.088 240.708,87.185 243.300 M289.500 235.733 C 290.600 236.008,292.634 237.038,294.020 238.021 C 295.407 239.005,299.007 240.570,302.020 241.499 C 305.034 242.428,309.525 244.000,312.000 244.992 C 320.339 248.335,333.080 252.000,336.360 252.000 C 338.152 252.000,340.433 251.404,341.431 250.674 C 342.957 249.558,344.118 249.638,348.777 251.174 C 351.820 252.179,355.266 253.000,356.433 253.000 C 358.671 253.000,362.011 249.835,361.985 247.739 C 361.973 246.799,361.787 246.786,361.214 247.687 C 359.946 249.683,355.194 251.026,352.750 250.080 C 351.512 249.601,349.150 248.037,347.500 246.606 C 345.850 245.174,344.114 244.002,343.643 244.001 C 343.172 244.001,343.054 243.302,343.382 242.448 C 343.723 241.558,343.555 241.157,342.989 241.507 C 341.349 242.521,341.878 244.995,343.750 245.068 C 345.143 245.122,345.041 245.357,343.250 246.220 C 342.012 246.817,341.000 247.666,341.000 248.108 C 341.000 248.549,339.479 249.195,337.620 249.543 C 335.075 250.021,331.310 249.152,322.370 246.023 C 315.842 243.738,307.626 241.009,304.113 239.959 C 300.601 238.910,296.679 237.364,295.398 236.525 C 294.118 235.686,291.817 235.052,290.285 235.116 C 288.172 235.204,287.982 235.353,289.500 235.733 M162.629 236.791 C 162.360 237.226,163.796 237.418,165.820 237.219 C 171.354 236.672,172.013 236.168,167.309 236.079 C 165.004 236.036,162.898 236.356,162.629 236.791 M191.500 238.000 L 188.500 238.763 192.000 238.808 C 193.925 238.832,197.525 238.491,200.000 238.051 L 204.500 237.250 199.500 237.243 C 196.750 237.240,193.150 237.580,191.500 238.000 M328.750 238.080 C 326.336 239.486,326.556 243.880,329.153 246.133 C 333.435 249.846,340.000 247.639,340.000 242.485 C 340.000 238.157,333.194 235.492,328.750 238.080 M212.500 238.969 C 221.915 240.657,225.725 241.019,223.234 239.989 C 221.987 239.474,217.937 238.832,214.234 238.562 C 207.934 238.104,207.822 238.130,212.500 238.969 M58.423 240.665 C 60.343 241.580,61.682 242.705,61.398 243.165 C 60.574 244.498,56.557 244.132,54.441 242.532 C 53.374 241.724,51.686 241.049,50.691 241.032 C 47.960 240.984,49.751 239.000,52.525 239.000 C 53.849 239.000,56.503 239.749,58.423 240.665 M336.429 240.571 C 337.293 241.436,338.000 242.529,338.000 243.000 C 338.000 244.032,335.144 247.000,334.151 247.000 C 332.725 247.000,329.000 243.849,329.000 242.643 C 329.000 239.215,333.748 237.891,336.429 240.571 M69.638 244.307 C 69.294 245.675,68.056 247.014,66.840 247.332 L 64.658 247.902 66.826 249.701 C 68.018 250.691,69.281 253.075,69.632 255.000 L 70.270 258.500 66.595 255.015 C 61.327 250.020,61.011 247.615,65.072 243.426 C 68.655 239.729,70.688 240.121,69.638 244.307 M191.280 241.736 C 193.909 241.943,197.959 241.940,200.280 241.731 C 202.601 241.521,200.450 241.352,195.500 241.355 C 190.550 241.358,188.651 241.530,191.280 241.736 M230.250 241.735 C 232.863 241.941,237.137 241.941,239.750 241.735 C 242.363 241.529,240.225 241.360,235.000 241.360 C 229.775 241.360,227.637 241.529,230.250 241.735 M53.000 247.679 C 53.000 248.899,52.676 248.886,50.832 247.595 C 48.873 246.222,48.540 246.241,47.364 247.788 C 46.629 248.756,46.050 248.981,46.032 248.307 C 46.014 247.650,46.982 246.426,48.182 245.585 C 50.559 243.920,53.000 244.981,53.000 247.679 M97.166 252.190 C 99.306 256.185,101.072 258.178,103.096 258.884 C 107.964 260.581,113.606 265.810,114.813 269.742 C 115.430 271.753,115.727 273.606,115.474 273.860 C 114.737 274.597,111.125 270.943,108.759 267.066 C 106.053 262.631,104.126 261.073,101.297 261.032 C 96.609 260.964,94.230 258.896,92.090 253.028 C 90.941 249.875,90.000 246.550,90.000 245.639 C 90.000 242.549,93.921 246.133,97.166 252.190 M60.638 252.642 C 62.613 255.618,65.078 258.506,66.115 259.061 C 68.717 260.454,68.473 263.207,65.500 266.000 L 63.000 268.349 62.985 263.924 C 62.976 261.339,62.638 260.022,62.173 260.755 C 61.309 262.116,57.852 256.483,55.455 249.806 C 53.504 244.372,56.087 245.786,60.638 252.642 M48.536 257.154 C 50.392 258.249,52.215 260.125,52.587 261.323 C 52.958 262.520,54.087 264.672,55.096 266.105 L 56.929 268.709 54.215 268.224 C 52.722 267.957,50.665 267.010,49.644 266.119 C 46.747 263.593,43.986 257.411,44.136 253.790 C 44.239 251.302,44.381 251.068,44.716 252.831 C 44.963 254.127,46.659 256.046,48.536 257.154 M153.630 256.000 C 154.192 256.000,155.742 257.164,157.076 258.587 C 158.409 260.010,162.425 262.796,166.000 264.778 C 169.575 266.760,172.813 268.846,173.196 269.412 C 174.372 271.154,173.112 271.407,171.256 269.802 C 170.290 268.966,167.025 267.093,164.000 265.638 C 154.496 261.070,147.000 255.124,147.000 252.155 C 147.000 251.058,147.793 251.386,149.805 253.313 C 151.347 254.791,153.069 256.000,153.630 256.000 M429.828 257.900 C 422.613 259.523,418.264 261.598,419.496 262.830 C 420.393 263.727,423.949 263.727,423.395 262.829 C 422.895 262.020,425.736 261.535,429.250 261.830 C 430.212 261.910,431.000 261.532,431.000 260.988 C 431.000 260.445,431.477 260.000,432.059 260.000 C 432.641 260.000,432.789 260.563,432.387 261.250 C 431.985 261.938,432.556 261.712,433.657 260.750 C 434.757 259.788,436.383 259.000,437.270 259.000 C 438.156 259.000,439.165 258.543,439.510 257.984 C 439.856 257.425,440.516 257.201,440.977 257.486 C 441.438 257.771,442.869 257.582,444.158 257.065 C 448.304 255.404,438.345 255.984,429.828 257.900 M414.179 261.090 C 412.353 262.162,411.142 262.580,411.488 262.019 C 411.835 261.459,411.416 261.000,410.559 261.000 C 409.702 261.000,409.000 261.341,409.000 261.757 C 409.000 262.174,406.918 262.349,404.372 262.146 C 401.159 261.891,399.955 262.118,400.431 262.889 C 400.809 263.500,400.641 264.000,400.059 264.000 C 399.477 264.000,399.000 263.464,399.000 262.809 C 399.000 262.154,398.339 262.491,397.532 263.559 C 395.506 266.237,395.643 267.261,397.869 266.070 C 398.896 265.520,400.010 265.344,400.344 265.678 C 400.678 266.012,401.638 265.716,402.476 265.020 C 403.670 264.029,404.000 264.022,404.000 264.991 C 404.000 265.899,405.261 266.038,408.750 265.515 C 414.683 264.625,416.606 263.615,417.281 261.032 C 417.574 259.914,417.742 259.032,417.656 259.071 C 417.570 259.110,416.006 260.019,414.179 261.090 M124.872 263.434 C 126.398 264.223,128.191 265.525,128.857 266.328 C 129.911 267.598,129.602 267.627,126.481 266.554 C 122.624 265.229,118.622 262.000,120.835 262.000 C 121.531 262.000,123.347 262.645,124.872 263.434 M385.500 263.634 C 376.499 264.637,362.500 266.685,362.500 267.000 C 362.500 267.365,358.167 267.999,354.250 268.208 C 351.736 268.342,350.000 268.925,350.000 269.636 C 350.000 270.296,349.712 271.586,349.361 272.502 C 348.815 273.924,349.250 274.084,352.342 273.592 C 358.238 272.655,365.241 270.972,366.411 270.210 C 367.358 269.593,371.184 269.142,377.230 268.933 C 378.182 268.900,379.268 268.375,379.644 267.766 C 380.093 267.041,379.726 266.891,378.580 267.331 C 377.418 267.777,376.973 267.583,377.253 266.751 C 377.761 265.237,387.316 265.448,387.828 266.984 C 388.014 267.543,388.859 268.000,389.706 268.000 C 390.960 268.000,391.015 267.723,390.000 266.500 C 389.215 265.554,389.148 265.000,389.819 265.000 C 390.403 265.000,391.160 265.450,391.500 266.000 C 391.840 266.550,392.841 267.000,393.726 267.000 C 394.610 267.000,395.040 266.707,394.682 266.349 C 394.324 265.991,394.812 265.105,395.766 264.381 C 397.277 263.233,396.921 263.079,393.000 263.182 C 390.525 263.247,387.150 263.450,385.500 263.634 M441.870 271.575 C 445.032 278.147,445.687 283.185,443.604 284.914 C 442.231 286.053,441.981 285.975,441.871 284.372 C 441.486 278.776,441.209 277.108,439.988 273.000 C 439.252 270.525,438.166 267.864,437.575 267.087 C 436.748 266.001,436.847 265.787,438.000 266.162 C 438.825 266.430,440.566 268.865,441.870 271.575 M334.500 268.000 C 331.098 268.609,330.949 268.729,333.500 268.800 C 335.150 268.847,338.300 268.512,340.500 268.057 C 343.811 267.372,343.983 267.235,341.500 267.257 C 339.850 267.272,336.700 267.606,334.500 268.000 M122.927 270.635 C 125.460 273.855,125.573 275.140,123.250 274.317 C 120.661 273.398,118.000 270.879,118.000 269.345 C 118.000 267.116,120.720 267.828,122.927 270.635 M141.500 269.000 C 141.840 269.550,143.456 270.000,145.090 270.000 C 148.154 270.000,150.049 272.351,148.353 274.047 C 146.393 276.007,137.000 271.772,137.000 268.929 C 137.000 267.680,140.721 267.740,141.500 269.000 M205.000 269.000 C 206.169 269.755,205.893 269.973,203.750 269.985 C 202.238 269.993,201.000 269.550,201.000 269.000 C 201.000 267.736,203.043 267.736,205.000 269.000 M465.090 276.733 C 464.219 278.228,464.058 278.038,464.044 275.500 C 464.035 273.850,464.359 271.375,464.764 270.000 C 465.428 267.745,465.530 267.866,465.809 271.233 C 465.979 273.286,465.656 275.761,465.090 276.733 M342.000 270.188 C 340.075 270.655,336.025 271.084,333.000 271.143 C 327.146 271.256,323.565 272.487,324.533 274.054 C 325.070 274.922,327.212 274.716,332.375 273.300 C 333.556 272.976,334.004 273.185,333.584 273.864 C 333.218 274.457,330.686 275.238,327.959 275.600 C 325.232 275.962,323.000 276.636,323.000 277.097 C 323.000 277.559,323.563 277.747,324.250 277.514 C 324.938 277.281,327.700 276.883,330.389 276.630 C 333.077 276.377,335.658 275.569,336.123 274.835 C 336.589 274.101,336.976 273.853,336.985 274.285 C 336.993 274.717,337.812 274.636,338.804 274.105 C 339.807 273.568,341.209 273.511,341.963 273.977 C 343.714 275.060,345.805 274.233,347.009 271.982 C 348.251 269.662,346.605 269.072,342.000 270.188 M359.000 270.000 C 359.000 270.550,358.438 271.033,357.750 271.074 C 357.063 271.115,355.385 271.353,354.021 271.603 C 351.103 272.138,352.421 270.454,355.500 269.713 C 358.748 268.932,359.000 268.952,359.000 270.000 M408.500 271.092 C 404.100 272.049,398.025 272.884,395.000 272.947 C 391.027 273.029,389.950 273.324,391.120 274.007 C 395.440 276.531,407.438 275.512,413.860 272.075 C 415.617 271.135,416.451 271.130,417.564 272.053 C 418.393 272.741,419.000 272.822,419.000 272.245 C 419.000 269.709,416.244 269.406,408.500 271.092 M456.465 271.587 C 457.397 273.009,457.860 274.472,457.494 274.837 C 456.783 275.545,453.000 271.380,453.000 269.889 C 453.000 268.157,454.793 269.035,456.465 271.587 M288.500 271.072 C 291.380 271.936,318.938 271.395,319.877 270.456 C 320.128 270.205,312.496 270.039,302.917 270.086 C 290.919 270.145,286.433 270.452,288.500 271.072 M345.362 271.500 C 345.045 272.325,343.908 273.000,342.834 273.000 C 341.760 273.000,341.165 272.543,341.510 271.984 C 341.856 271.425,342.526 271.207,343.000 271.500 C 343.474 271.793,344.144 271.575,344.490 271.016 C 345.439 269.480,346.014 269.799,345.362 271.500 M157.000 273.777 C 157.000 276.680,154.070 280.000,151.508 280.000 C 150.200 280.000,147.863 279.463,146.315 278.807 L 143.500 277.613 148.000 277.057 C 151.402 276.636,152.741 275.951,153.487 274.250 C 154.662 271.572,157.000 271.257,157.000 273.777 M227.165 272.498 C 227.494 272.827,230.971 273.439,234.892 273.858 C 238.812 274.277,241.678 274.312,241.260 273.935 C 240.323 273.092,226.332 271.665,227.165 272.498 M433.882 279.052 C 434.049 284.615,433.917 285.026,432.250 284.134 C 429.894 282.873,425.000 277.973,425.000 276.875 C 425.000 276.407,426.800 275.736,429.000 275.384 C 431.200 275.032,433.000 274.352,433.000 273.872 C 433.000 273.392,433.158 273.000,433.350 273.000 C 433.543 273.000,433.782 275.724,433.882 279.052 M271.917 275.633 C 272.146 275.835,270.008 276.000,267.167 276.000 C 264.325 276.000,262.000 275.605,262.000 275.123 C 262.000 274.321,270.950 274.782,271.917 275.633 M138.500 276.000 C 139.238 277.194,137.278 277.194,134.500 276.000 C 132.714 275.233,132.788 275.133,135.191 275.070 C 136.671 275.032,138.160 275.450,138.500 276.000 M452.800 277.200 C 454.814 279.214,454.290 281.889,452.000 281.290 C 450.900 281.002,450.000 280.118,450.000 279.324 C 450.000 278.531,449.550 278.160,449.000 278.500 C 447.888 279.187,447.620 277.714,448.667 276.667 C 449.691 275.642,451.472 275.872,452.800 277.200 M174.766 283.381 C 173.812 284.105,173.362 285.062,173.766 285.508 C 174.169 285.954,173.676 286.022,172.668 285.659 C 171.661 285.297,170.086 284.963,169.168 284.919 C 167.174 284.822,172.766 282.097,175.000 282.077 C 176.212 282.066,176.167 282.316,174.766 283.381 M469.000 284.000 C 469.000 284.550,468.663 284.889,468.250 284.754 C 467.837 284.619,463.450 286.153,458.500 288.164 C 449.648 291.761,430.128 297.461,429.345 296.679 C 429.125 296.459,431.770 295.508,435.223 294.566 C 444.094 292.144,452.437 289.173,459.457 285.936 C 465.845 282.989,469.000 282.349,469.000 284.000 M452.000 285.781 C 452.000 286.716,445.834 289.167,445.165 288.498 C 444.908 288.241,446.228 287.366,448.099 286.554 C 452.193 284.778,452.000 284.816,452.000 285.781 M375.500 287.464 C 383.870 287.541,388.216 290.384,384.952 293.648 C 383.797 294.803,379.051 293.958,370.423 291.062 C 365.852 289.528,365.118 289.510,363.055 290.879 C 361.787 291.721,358.475 292.423,355.636 292.450 C 350.729 292.498,350.461 292.643,349.433 295.812 L 348.359 299.123 346.518 295.040 C 344.720 291.052,344.721 290.923,346.588 289.510 C 348.705 287.908,349.739 287.778,358.651 287.987 C 362.306 288.072,365.085 287.671,365.502 286.997 C 365.911 286.336,366.889 286.185,367.851 286.636 C 368.758 287.061,372.200 287.433,375.500 287.464 M471.057 288.431 C 470.485 289.120,470.351 290.052,470.759 290.502 C 471.166 290.952,470.925 290.989,470.222 290.584 C 469.513 290.175,465.059 291.435,460.222 293.413 C 455.425 295.373,444.975 298.777,437.000 300.975 C 429.025 303.174,420.250 305.648,417.500 306.474 C 414.750 307.299,410.025 308.424,407.000 308.975 C 403.975 309.526,397.000 310.916,391.500 312.064 C 375.027 315.503,366.669 316.961,363.500 316.950 C 358.445 316.932,362.728 315.394,371.500 314.078 C 375.900 313.418,380.850 312.476,382.500 311.986 C 384.150 311.495,387.525 310.817,390.000 310.478 C 392.475 310.140,396.300 309.413,398.500 308.864 C 400.700 308.314,407.486 306.799,413.579 305.497 C 429.788 302.033,465.821 290.247,468.919 287.396 C 470.658 285.796,472.503 286.689,471.057 288.431 M231.000 290.454 C 235.078 292.078,237.852 292.418,236.450 291.121 C 235.928 290.638,233.700 289.976,231.500 289.651 L 227.500 289.059 231.000 290.454 M397.250 292.492 C 399.798 293.543,399.391 295.865,396.422 297.217 C 393.087 298.737,390.751 297.327,389.926 293.295 C 389.324 290.351,389.383 290.298,392.405 291.025 C 394.107 291.434,396.288 292.095,397.250 292.492 M440.000 290.519 C 440.000 290.694,438.087 291.294,435.750 291.852 C 433.413 292.409,427.814 293.987,423.308 295.358 C 415.505 297.732,397.490 301.959,371.694 307.468 C 365.201 308.855,358.901 310.495,357.694 311.114 C 356.487 311.732,351.165 316.684,345.867 322.119 C 340.569 327.553,335.928 332.000,335.555 332.000 C 334.395 332.000,340.755 323.863,348.295 315.700 C 356.530 306.785,354.787 307.430,384.350 302.365 L 400.200 299.649 401.785 296.325 C 403.738 292.230,406.474 291.622,404.954 295.621 C 404.001 298.127,404.079 298.212,406.729 297.580 C 408.253 297.217,410.043 296.863,410.706 296.793 C 411.369 296.724,411.680 296.292,411.397 295.833 C 411.114 295.375,411.696 294.989,412.691 294.976 C 418.426 294.899,425.956 293.597,429.000 292.156 C 431.986 290.743,440.000 289.550,440.000 290.519 M370.784 294.845 C 372.468 295.914,371.252 298.998,369.143 299.007 C 368.239 299.010,366.150 299.907,364.500 301.000 C 362.850 302.093,360.854 302.990,360.064 302.993 C 359.275 302.997,357.501 304.012,356.123 305.250 C 354.744 306.488,356.290 304.463,359.558 300.751 C 365.323 294.202,367.755 292.923,370.784 294.845 M356.705 297.313 C 355.492 298.585,353.600 301.151,352.500 303.014 C 347.961 310.705,347.824 310.842,348.505 307.000 C 350.025 298.422,352.184 295.000,356.077 295.000 L 358.909 295.000 356.705 297.313 M345.930 303.827 C 345.987 307.329,345.443 308.711,343.077 311.077 C 341.469 312.685,339.454 314.000,338.599 314.000 C 337.391 314.000,337.700 312.966,339.980 309.370 C 341.595 306.824,343.228 302.663,343.609 300.124 C 344.152 296.497,344.468 295.935,345.080 297.504 C 345.509 298.602,345.891 301.447,345.930 303.827 M387.306 298.985 C 388.374 299.948,379.984 301.070,377.187 300.339 C 375.003 299.767,374.461 298.872,375.607 297.726 C 376.378 296.955,386.231 298.015,387.306 298.985 M337.028 300.361 C 336.463 301.813,335.561 304.125,335.025 305.500 C 334.477 306.904,334.441 308.000,334.942 308.000 C 336.082 308.000,339.494 299.161,338.672 298.339 C 338.333 298.000,337.593 298.910,337.028 300.361 M445.000 303.500 C 444.315 304.325,443.000 305.000,442.078 305.000 C 441.155 305.000,439.867 305.533,439.217 306.183 C 438.566 306.834,437.784 307.117,437.479 306.812 C 437.174 306.507,438.854 305.322,441.212 304.179 C 446.438 301.645,446.557 301.624,445.000 303.500 M428.500 311.002 C 425.074 313.274,419.112 315.445,418.361 314.695 C 418.084 314.417,419.208 313.894,420.859 313.531 C 422.511 313.168,424.394 312.230,425.044 311.447 C 425.695 310.663,426.626 310.269,427.113 310.570 C 427.601 310.871,428.000 310.641,428.000 310.059 C 428.000 309.477,428.788 309.003,429.750 309.007 C 431.002 309.011,430.646 309.580,428.500 311.002 M136.250 311.989 C 137.213 311.995,138.000 312.450,138.000 313.000 C 138.000 314.499,133.674 314.205,129.865 312.448 L 126.500 310.896 130.500 311.437 C 132.700 311.735,135.287 311.983,136.250 311.989 M117.330 313.847 C 116.901 315.487,117.713 315.767,124.574 316.347 C 136.624 317.365,148.794 317.142,149.569 315.889 C 150.044 315.119,148.873 314.889,145.755 315.139 C 142.456 315.404,141.382 315.166,141.734 314.250 C 142.048 313.432,144.404 313.000,148.551 313.000 C 153.782 313.000,155.371 313.415,157.652 315.377 L 160.416 317.754 150.277 318.480 C 136.991 319.431,117.442 318.238,115.902 316.382 C 115.035 315.337,115.059 314.634,116.000 313.500 C 117.632 311.534,117.915 311.608,117.330 313.847 M465.725 314.541 C 461.889 317.148,445.982 324.315,445.376 323.709 C 445.191 323.524,449.168 321.433,454.214 319.063 C 459.261 316.692,464.009 314.134,464.766 313.377 C 465.523 312.619,466.890 312.000,467.804 312.000 C 468.806 312.000,467.981 313.008,465.725 314.541 M168.962 315.689 C 169.217 315.910,167.754 315.979,165.712 315.841 C 163.671 315.704,162.000 315.244,162.000 314.821 C 162.000 314.090,167.982 314.836,168.962 315.689 M408.500 318.267 C 411.360 318.680,411.335 318.707,407.950 318.850 C 404.527 318.995,402.000 317.633,402.000 315.645 C 402.000 315.120,402.788 315.397,403.750 316.261 C 404.712 317.126,406.850 318.028,408.500 318.267 M49.646 324.498 C 50.676 326.708,50.612 326.863,49.021 326.011 C 48.047 325.490,47.020 324.183,46.738 323.106 C 46.023 320.373,48.214 321.421,49.646 324.498 M430.118 324.250 C 429.286 326.542,426.488 328.310,422.000 329.379 C 420.625 329.707,421.404 329.068,423.731 327.958 C 426.057 326.849,428.436 325.055,429.016 323.971 C 430.444 321.302,431.126 321.475,430.118 324.250 M61.615 324.765 C 62.229 325.169,63.055 326.625,63.451 328.000 C 63.848 329.375,65.371 331.550,66.836 332.832 L 69.500 335.165 67.000 334.460 C 63.384 333.441,62.096 332.148,61.182 328.624 C 60.261 325.069,57.326 324.234,57.798 327.661 C 57.962 328.850,57.624 330.114,57.048 330.470 C 56.407 330.866,56.000 329.962,56.000 328.142 C 56.000 324.606,58.809 322.917,61.615 324.765 M270.414 324.943 C 279.716 325.249,295.916 325.252,306.414 324.949 C 320.728 324.535,316.499 324.396,289.500 324.391 C 265.106 324.387,258.953 324.565,270.414 324.943 M395.000 326.517 C 392.147 328.168,377.507 333.034,375.698 332.933 C 374.494 332.866,394.630 325.349,396.500 325.168 C 397.050 325.114,396.375 325.722,395.000 326.517 M351.762 328.687 C 350.806 328.937,349.006 328.946,347.762 328.707 C 346.518 328.468,347.300 328.263,349.500 328.252 C 351.700 328.241,352.718 328.437,351.762 328.687 M78.500 332.000 C 80.372 335.621,79.193 335.898,76.068 332.572 C 74.813 331.237,73.160 330.385,72.394 330.679 C 71.627 330.973,71.000 330.716,71.000 330.107 C 71.000 329.498,72.338 329.000,73.974 329.000 C 76.268 329.000,77.304 329.687,78.500 332.000 M396.434 331.047 C 395.370 331.433,394.288 331.556,394.029 331.320 C 393.216 330.580,396.354 329.101,397.386 329.738 C 397.926 330.072,397.497 330.661,396.434 331.047 M412.450 329.929 C 410.742 331.600,406.000 332.344,406.000 330.942 C 406.000 330.240,406.253 329.920,406.563 330.230 C 406.873 330.540,408.336 330.428,409.813 329.983 C 413.481 328.876,413.528 328.875,412.450 329.929 M402.926 331.411 C 403.823 332.491,403.815 332.996,402.894 333.565 C 402.131 334.037,401.952 333.886,402.405 333.155 C 402.856 332.425,402.361 332.000,401.059 332.000 C 399.927 332.000,399.000 331.550,399.000 331.000 C 399.000 329.518,401.579 329.788,402.926 331.411 M104.706 336.952 C 129.644 338.663,130.600 338.839,112.500 338.387 C 91.313 337.857,79.529 336.893,83.000 335.973 C 84.375 335.608,86.268 335.435,87.206 335.589 C 88.144 335.742,96.019 336.356,104.706 336.952 M344.917 335.358 C 344.688 335.556,342.700 335.993,340.500 336.330 C 337.776 336.748,336.979 336.638,338.000 335.987 C 339.366 335.116,345.887 334.523,344.917 335.358 M377.393 337.582 C 378.331 340.026,378.113 342.000,376.906 342.000 C 376.305 342.000,375.577 341.100,375.290 340.000 C 375.002 338.900,374.327 338.000,373.790 338.000 C 373.252 338.000,372.577 338.900,372.290 340.000 C 371.615 342.582,366.526 342.759,365.115 340.250 C 364.201 338.627,363.978 338.663,362.026 340.750 C 360.169 342.736,358.941 343.000,351.568 343.000 C 344.914 343.000,343.092 342.682,342.614 341.437 C 342.284 340.577,341.513 340.183,340.900 340.562 C 340.117 341.046,340.186 341.497,341.131 342.081 C 342.130 342.698,341.965 342.929,340.487 342.981 C 339.394 343.019,334.450 343.310,329.500 343.628 C 318.509 344.334,318.447 343.497,329.419 342.526 C 333.774 342.140,338.355 341.158,339.598 340.344 C 341.597 339.034,342.129 339.035,344.180 340.353 C 347.534 342.508,357.248 341.737,360.673 339.043 C 363.143 337.099,363.460 337.071,365.774 338.587 C 368.094 340.108,368.365 340.079,370.343 338.102 C 372.825 335.619,376.535 335.346,377.393 337.582 M162.001 339.750 C 162.002 340.163,157.164 340.376,151.251 340.224 C 133.880 339.777,132.459 339.348,147.750 339.168 C 155.588 339.076,162.001 339.337,162.001 339.750 M188.000 340.000 C 187.175 340.533,181.775 340.969,176.000 340.969 C 168.856 340.969,165.979 340.660,167.000 340.000 C 167.825 339.467,173.225 339.031,179.000 339.031 C 186.144 339.031,189.021 339.340,188.000 340.000 M210.280 341.731 C 207.959 341.940,203.909 341.943,201.280 341.736 C 198.651 341.530,200.550 341.358,205.500 341.355 C 210.450 341.352,212.601 341.521,210.280 341.731 M247.500 342.000 C 244.623 343.236,222.087 343.236,224.000 342.000 C 224.825 341.467,230.900 341.055,237.500 341.086 C 245.123 341.121,248.770 341.454,247.500 342.000 M311.891 342.911 C 312.733 343.445,310.562 343.603,306.391 343.314 C 297.091 342.668,296.117 342.171,304.000 342.094 C 307.575 342.059,311.126 342.427,311.891 342.911 M289.250 343.743 C 285.262 343.932,278.738 343.932,274.750 343.743 C 270.762 343.553,274.025 343.397,282.000 343.397 C 289.975 343.397,293.238 343.553,289.250 343.743 " stroke="none" fill="undefined" fill-rule="evenodd"/></svg>